#!OML:ASF E:\Steps\Project 1\Capture day 1\Session 2\Subject.ASF
:FULLY-SPECIFIED
:DEGREES
408
root 9.65148 16.4106 9.20791 26.49 1.06111 -359.211
lowerback -26.3193 -1.25679 -5.31091
upperback -2.7065 0.0405177 -1.08397
thorax 11.646 -0.203234 1.84618
lowerneck 2.82037 -3.26785 -1.94037
upperneck -19.4933 -3.43633 7.04401
head -6.18097 -2.06127 2.77552
rclavicle 1.98785e-016 -1.11319e-014
rhumerus -33.2392 -26.3045 -76.4455
rradius 19.4656
rwrist 9.55934
rhand -8.03808 -51.7385
rfingers 7.12502
rthumb 17.8722 -80.9372
lclavicle 1.98785e-016 -1.11319e-014
lhumerus -28.0082 1.22395 85.1124
lradius 23.0477
lwrist -1.15228
lhand -25.197 -14.4521
lfingers 7.12502
lthumb 1.32129 15.5236
rfemur -25.4246 7.01803 18.8142
rtibia 9.36819
rfoot -17.2245 -12.3736
rtoes -38.2384
lfemur -25.456 -9.18814 -17.7675
ltibia 11.1518
lfoot -8.51112 3.88177
ltoes -39.4856
409
root 9.65128 16.4096 9.2066 26.4626 0.826333 -359.135
lowerback -26.6471 -1.26967 -5.39795
upperback -2.59784 0.0737383 -1.06555
thorax 11.9435 -0.201818 1.92727
lowerneck 2.74889 -3.24339 -1.99083
upperneck -19.5834 -3.41582 6.97665
head -6.19844 -2.04293 2.76215
rclavicle 7.95139e-015 -3.49861e-014
rhumerus -32.9887 -25.6509 -76.9649
rradius 19.9738
rwrist 8.88696
rhand -7.77258 -52.0571
rfingers 7.12502
rthumb 18.1276 -81.2324
lclavicle 7.95139e-015 -3.49861e-014
lhumerus -27.8184 1.07538 85.2308
lradius 23.0908
lwrist -1.16587
lhand -25.267 -14.3445
lfingers 7.12502
lthumb 1.25369 15.6316
rfemur -25.2922 7.12066 18.6656
rtibia 9.10699
rfoot -16.6875 -12.3845
rtoes -39.1644
lfemur -25.005 -9.14473 -17.896
ltibia 10.3804
lfoot -8.30613 4.05274
ltoes -39.7478
410
root 9.65052 16.4081 9.20625 26.4843 0.686643 -359.116
lowerback -26.8374 -1.26335 -5.39521
upperback -2.63256 0.0918614 -1.05725
thorax 12.0029 -0.194538 1.94158
lowerneck 2.68743 -3.26138 -2.07507
upperneck -19.5565 -3.45756 6.93178
head -6.1763 -2.05282 2.76208
rclavicle 6.4605e-015 -2.90226e-014
rhumerus -32.9675 -25.8712 -77.0249
rradius 20.063
rwrist 9.19409
rhand -7.83812 -52.0835
rfingers 7.12502
rthumb 18.0646 -81.2646
lclavicle 6.4605e-015 -2.90226e-014
lhumerus -27.8676 0.873205 85.3021
lradius 23.1784
lwrist -1.12885
lhand -25.2757 -14.5864
lfingers 7.12502
lthumb 1.24527 15.3897
rfemur -25.1878 7.14259 18.6212
rtibia 8.85389
rfoot -16.6444 -12.2476
rtoes -38.1222
lfemur -24.6486 -9.07079 -17.9277
ltibia 9.67502
lfoot -8.09873 4.02007
ltoes -38.6153
411
root 9.64665 16.4064 9.20671 26.5298 0.472181 -359.025
lowerback -26.9482 -1.31005 -5.54244
upperback -2.75144 0.0762855 -1.05043
thorax 11.9242 -0.205431 2.02896
lowerneck 2.59501 -3.23751 -2.12824
upperneck -19.4063 -3.4466 6.86744
head -6.11348 -2.03632 2.74392
rclavicle -6.26172e-015 4.37326e-015
rhumerus -33.1466 -26.544 -76.8408
rradius 20.084
rwrist 10.2289
rhand -8.09766 -51.5841
rfingers 7.12502
rthumb 17.8149 -80.7881
lclavicle -6.26172e-015 4.37326e-015
lhumerus -28.1996 0.541356 85.3942
lradius 23.4545
lwrist -0.804359
lhand -25.3493 -14.8732
lfingers 7.12502
lthumb 1.1742 15.1033
rfemur -25.1437 7.30359 18.4394
rtibia 8.59289
rfoot -16.3318 -12.2994
rtoes -39.09
lfemur -24.3453 -9.09487 -17.9956
ltibia 8.99567
lfoot -7.9919 4.08271
ltoes -36.8752
412
root 9.64469 16.4047 9.20532 26.4888 0.254942 -358.971
lowerback -26.9184 -1.33918 -5.636
upperback -2.84721 0.0574781 -1.03677
thorax 11.7984 -0.214458 2.09219
lowerneck 2.67121 -3.22484 -2.11722
upperneck -19.3687 -3.43071 6.86785
head -6.11587 -2.03037 2.74213
rclavicle -1.88845e-015 1.11319e-014
rhumerus -32.9029 -25.8729 -77.3013
rradius 19.8739
rwrist 9.7336
rhand -8.58688 -51.0774
rfingers 7.12502
rthumb 17.3441 -80.3235
lclavicle -1.88845e-015 1.11319e-014
lhumerus -28.4964 0.250962 85.4841
lradius 23.7264
lwrist -0.442346
lhand -25.5148 -14.9592
lfingers 7.12502
lthumb 1.01432 15.0182
rfemur -25.0558 7.45238 18.3122
rtibia 8.43011
rfoot -16.156 -12.2898
rtoes -40.0508
lfemur -23.9787 -9.18773 -18.0449
ltibia 8.32728
lfoot -7.8913 4.3693
ltoes -36.4687
413
root 9.64673 16.4011 9.20507 26.3919 0.0879374 -358.963
lowerback -26.8138 -1.32644 -5.58301
upperback -2.92828 0.0451506 -1.02379
thorax 11.6501 -0.213052 2.07283
lowerneck 2.74557 -3.22757 -2.16102
upperneck -19.3826 -3.43641 6.88358
head -6.13156 -2.03266 2.7568
rclavicle -3.47873e-015 3.29983e-014
rhumerus -32.8981 -26.4815 -77.1387
rradius 19.5656
rwrist 10.3834
rhand -9.14502 -50.5882
rfingers 7.12502
rthumb 16.8068 -79.8808
lclavicle -3.47873e-015 3.29983e-014
lhumerus -28.698 0.163338 85.5303
lradius 23.7863
lwrist -0.337615
lhand -25.6585 -15.1804
lfingers 7.12502
lthumb 0.875564 14.7976
rfemur -24.8799 7.55774 18.2643
rtibia 8.27002
rfoot -16.1178 -12.1876
rtoes -40.0503
lfemur -23.599 -9.1087 -18.1413
ltibia 7.74459
lfoot -7.68371 4.54942
ltoes -37.1909
414
root 9.64771 16.3962 9.20341 26.3581 -0.10707 -358.849
lowerback -26.7829 -1.3458 -5.64285
upperback -3.0158 0.03097 -1.02358
thorax 11.5334 -0.218145 2.103
lowerneck 2.7798 -3.20385 -2.29188
upperneck -19.4126 -3.41791 6.8704
head -6.14522 -2.01445 2.77503
rclavicle -5.26779e-015 3.18055e-015
rhumerus -32.6892 -26.2308 -77.3433
rradius 19.398
rwrist 10.1649
rhand -9.62455 -50.6667
rfingers 7.12502
rthumb 16.3452 -79.9979
lclavicle -5.26779e-015 3.18055e-015
lhumerus -28.8538 0.283166 85.5296
lradius 23.697
lwrist -0.484072
lhand -25.7343 -15.5926
lfingers 7.12502
lthumb 0.802347 14.3856
rfemur -24.8061 7.79638 18.0088
rtibia 8.09777
rfoot -16.0231 -12.2161
rtoes -39.8522
lfemur -23.363 -8.9605 -18.3601
ltibia 7.32445
lfoot -7.5216 4.6047
ltoes -37.4359
